<svg viewBox="0 0 160 35" xmlns="http://www.w3.org/2000/svg" height="100%" width="100%"><g fill-rule="evenodd"><path d="M41.717 17.922c-3.476 0-6.303 2.828-6.303 6.303s2.827 6.304 6.303 6.304 6.304-2.828 6.304-6.304-2.828-6.303-6.304-6.303zm0 16.872c-5.828 0-10.57-4.741-10.57-10.569 0-5.827 4.742-10.569 10.57-10.569s10.57 4.742 10.57 10.57c0 5.827-4.742 10.568-10.57 10.568zM24.475 34.794h4.265V0h-4.265zM10.673 30.528c-3.476 0-6.304-2.827-6.304-6.303s2.828-6.303 6.304-6.303c3.475 0 6.303 2.828 6.303 6.303s-2.828 6.303-6.303 6.303zm6.303-16.872v2.091a10.514 10.514 0 00-6.303-2.09c-5.828 0-10.57 4.74-10.57 10.568s4.742 10.57 10.57 10.57c2.36 0 4.542-.779 6.303-2.092v2.091h4.266V13.656zM95.344 32.822c-4.84 0-8.779-3.938-8.779-8.778s3.938-8.779 8.779-8.779c4.84 0 8.779 3.938 8.779 8.779 0 4.84-3.939 8.778-8.779 8.778m0-18.746c-5.497 0-9.969 4.471-9.969 9.968s4.472 9.968 9.969 9.968c5.496 0 9.968-4.472 9.968-9.968s-4.472-9.968-9.968-9.968M125.244 23.204c.33-4.463 4.03-7.813 8.663-7.813 4.343-.172 8.346 3.463 8.62 7.813zm-1.295.924v.035c.017 5.617 4.276 9.848 9.917 9.848h.106c4.077 0 7.461-2.2 9.066-5.902l.07-.163h-1.34l-.031.068c-1.418 3.037-4.347 4.85-7.836 4.85l-.068.001c-3.543 0-8.497-2.626-8.63-8.515h18.54l.043-.649c-.265-6.208-5.173-9.457-9.884-9.457-5.662 0-9.936 4.247-9.953 9.884zM113.427 33.189l.334.789-.005.012.01.022h1.262l7.872-19.147h-1.095c-.005.011-.24.59-.244.603l-.033.077-.045.107-.056.134-.068.16-.079.188-.089.21-.098.234-.108.256-.117.276-.124.297-.133.314-.103.245-.452 1.102-.073.172-.164.39-.169.4-.173.41-.177.42-.18.428c-.06.145-.122.29-.183.434l-.185.44-.187.444-.189.448a147.12 147.12 0 00-.379.9l-.19.45-.189.448-.187.446-.187.442-.184.437-.181.43a222.8 222.8 0 01-.353.839l-.17.405-.167.394-.161.382-.156.369-.149.354-.143.34-.136.321-.128.305-.12.285-.112.265-.102.243-.093.221-.083.197-.073.173-.062.146-.05.118-.037.09c-.044.104-.113.243-.252.2-.104-.031-.142-.156-.18-.245l-.128-.3-.137-.317-6.643-15.718-.103-.242-.226-.567h-1.048l.297.666zM146.078 28.275c-.097 1.306.336 2.518 1.252 3.505 1.298 1.397 3.455 2.232 5.77 2.232 2.025 0 4.66-.775 5.983-2.949 1.137-1.868.843-4.504-.67-6-1.261-1.248-3.13-1.67-4.778-2.044l-.112-.026-.424-.097c-3.139-.731-4.865-1.57-4.997-3.908a3.266 3.266 0 01.916-2.48c.9-.953 2.389-1.5 4.083-1.5h.11c1.516 0 2.812.455 3.652 1.282.704.694 1.06 1.614 1.06 2.734h1.207c0-2.966-2.367-4.908-6.03-4.948h-.088c-2.226 0-4.16.797-5.186 2.143-1.16 1.52-1.221 3.749-.142 5.183 1.182 1.571 3.632 2.178 5.372 2.498 3.833.705 5.43 2.025 5.514 4.554.039 1.11-.378 2.174-1.174 2.998-1.014 1.05-2.54 1.628-4.297 1.628-3.533 0-5.815-1.886-5.815-4.805zM57.037 21.336c.122-3.83 2.486-5.869 5.787-5.869 3.301 0 5.747 2.12 5.747 6.155v12.39h1.223v-12.39c0-3.995 2.445-6.155 5.787-6.155 3.302 0 5.747 2.12 5.747 6.155v12.39h1.223V21.58c0-4.728-2.975-7.336-6.97-7.336-3.097 0-5.339 1.59-6.195 4.524-.937-2.935-3.464-4.524-6.562-4.524-2.69 0-4.728 1.222-5.787 3.423v-3.016h-1.223v19.36h1.223z"></path></g></svg>